<svg width="132" height="33" viewBox="0 0 132 33" fill="#000000" xmlns="http://www.w3.org/2000/svg">
<path d="M21.1976 15.5655L24.0625 17.4896C23.3564 18.5395 22.4033 19.4006 21.2867 19.9976C20.17 20.5946 18.9237 20.9094 17.657 20.9143C16.1537 20.9202 14.6835 20.4738 13.4382 19.6333C12.0668 18.7268 11.0242 17.4036 10.4648 15.8595C9.90539 14.3155 9.85887 12.6326 10.3321 11.0601C10.8054 9.48764 11.7733 8.10906 13.0925 7.12846C14.4118 6.14787 16.0122 5.61739 17.657 5.61554C18.9252 5.61742 20.1733 5.93168 21.2907 6.53045C22.4081 7.12922 23.3602 7.994 24.0625 9.04808L21.1976 10.9539C20.6996 10.1893 19.9674 9.60589 19.1102 9.2906C18.2529 8.97531 17.3166 8.94505 16.4407 9.20431C15.5649 9.46358 14.7964 9.9985 14.2499 10.7293C13.7034 11.4601 13.4081 12.3477 13.4081 13.2597C13.4081 14.1717 13.7034 15.0592 14.2499 15.7901C14.7964 16.5209 15.5649 17.0558 16.4407 17.315C17.3166 17.5743 18.2529 17.544 19.1102 17.2288C19.9674 16.9135 20.6996 16.33 21.1976 15.5655Z" fill="#000000"/>
<path d="M40.6396 13.2596C40.6419 11.8778 41.0187 10.5225 41.73 9.33712C42.4414 8.15179 43.4607 7.18069 44.6801 6.52679C45.8994 5.87288 47.2733 5.56052 48.656 5.62284C50.0387 5.68517 51.3788 6.11983 52.5341 6.88077V5.61546H55.9726V20.9142H52.5341V19.6332C51.2834 20.47 49.8118 20.9168 48.3061 20.9168C46.8005 20.9168 45.3288 20.47 44.0781 19.6332C43.0222 18.937 42.1555 17.9905 41.5555 16.8783C40.9555 15.7661 40.6408 14.5228 40.6396 13.2596ZM52.5341 13.2596C52.5326 12.4245 52.283 11.6085 51.8168 10.915C51.3507 10.2215 50.689 9.68159 49.9154 9.36354C49.1419 9.0455 48.2912 8.96362 47.4711 9.12826C46.6509 9.2929 45.898 9.69667 45.3078 10.2885C44.7175 10.8803 44.3163 11.6336 44.1549 12.4531C43.9935 13.2725 44.0793 14.1214 44.4012 14.8922C44.7231 15.6631 45.2669 16.3213 45.9636 16.7836C46.6603 17.2459 47.4787 17.4916 48.3153 17.4895C48.8707 17.4888 49.4205 17.3788 49.9332 17.1658C50.4459 16.9527 50.9116 16.6408 51.3034 16.248C51.6953 15.8551 52.0057 15.3889 52.2169 14.8761C52.4281 14.3633 52.5359 13.814 52.5341 13.2596Z" fill="#000000"/>
<path d="M58.8061 2.54703e-05C59.0375 -0.00899262 59.2683 0.0287222 59.4848 0.11091C59.7013 0.193097 59.8989 0.318065 60.0658 0.478325C60.2327 0.638585 60.3655 0.830838 60.4562 1.04356C60.5469 1.25629 60.5937 1.4851 60.5937 1.7163C60.5937 1.94749 60.5469 2.17631 60.4562 2.38903C60.3655 2.60176 60.2327 2.79401 60.0658 2.95427C59.8989 3.11453 59.7013 3.2395 59.4848 3.32169C59.2683 3.40387 59.0375 3.44159 58.8061 3.43257C58.3513 3.42847 57.9163 3.24611 57.5949 2.92481C57.2736 2.60351 57.0916 2.16901 57.0881 1.71499C57.0895 1.26058 57.271 0.82517 57.5928 0.503851C57.9147 0.182531 58.3509 0.00140458 58.8061 2.54703e-05ZM57.0881 5.61549H60.5266V20.9142H57.0881V5.61549Z" fill="#000000"/>
<path d="M71.9419 12.5486C71.9169 11.6343 71.5355 10.7659 70.8789 10.1281C70.2223 9.49027 69.3423 9.13339 68.4262 9.13339C67.51 9.13339 66.63 9.49027 65.9734 10.1281C65.3168 10.7659 64.9354 11.6343 64.9104 12.5486V20.9142H61.4746V5.6155H64.9104V6.5854C65.9729 5.95057 67.1879 5.6153 68.4262 5.6153C69.6644 5.6153 70.8794 5.95057 71.9419 6.5854C72.9858 7.19408 73.8523 8.06455 74.4554 9.11053C75.0586 10.1565 75.3774 11.3417 75.3803 12.5486V20.9142H71.9419V12.5486Z" fill="#000000"/>
<path d="M83.53 7.08996V10.5199H81.0291V20.9142H77.5906V10.5199H75.925V7.08996H77.5906V5.92661C77.5904 4.79692 77.914 3.69076 78.5233 2.73879C79.1326 1.78682 80.0021 1.0288 81.0291 0.554273C81.811 0.185939 82.6654 -0.00341212 83.53 4.65417e-05V3.43259C82.868 3.43534 82.2339 3.6989 81.7655 4.16595C81.2972 4.633 81.0325 5.26576 81.0291 5.92661V7.08996H83.53Z" fill="#000000"/>
<path d="M92.0543 9.04804C90.9358 9.04943 89.8635 9.49359 89.0726 10.2831C88.2818 11.0726 87.8368 12.1431 87.8354 13.2596V20.9142H84.397V5.6155H87.8354V6.88081C89.0856 6.05221 90.5537 5.61191 92.0543 5.6155V9.04804Z" fill="#000000"/>Tv
<path d="M95.333 19.6385C94.4367 19.0501 93.6738 18.2809 93.0933 17.3804C92.5128 16.4799 92.1277 15.468 91.9626 14.4099C91.9286 14.0465 91.8945 13.6492 91.8945 13.2675C91.8967 12.4929 92.0096 11.7227 92.2297 10.98C92.7735 9.30084 93.8687 7.85385 95.3382 6.87295C96.5908 6.04613 98.0607 5.60854 99.5623 5.61548C101.196 5.60398 102.789 6.12018 104.105 7.08701C105.42 8.05385 106.387 9.41946 106.861 10.98C107.091 11.7153 107.209 12.4813 107.209 13.2518C107.206 13.6342 107.177 14.016 107.12 14.3942H95.4875C95.7057 15.1739 96.1445 15.8742 96.7513 16.4112C97.3581 16.9482 98.1072 17.2992 98.9087 17.422C99.7103 17.5447 100.53 17.4342 101.27 17.1035C102.011 16.7728 102.64 16.2361 103.082 15.5576L105.947 17.4817C105.244 18.5301 104.294 19.3909 103.181 19.9892C102.069 20.5875 100.826 20.9051 99.5623 20.9142C98.056 20.9238 96.5819 20.4792 95.333 19.6385ZM103.058 10.98H103.111C103.111 10.9643 103.092 10.9643 103.092 10.946C102.705 10.3647 102.181 9.88758 101.565 9.55658C100.949 9.22558 100.262 9.05092 99.5623 9.04803C98.8526 9.0441 98.1533 9.2191 97.5293 9.55683C96.9054 9.89455 96.3769 10.3841 95.9929 10.98H103.058Z" fill="#000000"/>
<path d="M118.561 12.5486C118.536 11.6343 118.155 10.7659 117.498 10.1281C116.842 9.49027 115.962 9.13339 115.046 9.13339C114.13 9.13339 113.25 9.49027 112.593 10.1281C111.936 10.7659 111.555 11.6343 111.53 12.5486V20.9142H108.092V5.6155H111.53V6.5854C112.592 5.95057 113.807 5.6153 115.046 5.6153C116.284 5.6153 117.499 5.95057 118.561 6.5854C119.605 7.19448 120.471 8.06504 121.074 9.11093C121.677 10.1568 121.996 11.3418 122 12.5486V20.9142H118.561V12.5486Z" fill="#000000"/>
<path fill-rule="evenodd" clip-rule="evenodd" d="M21.1874 31.8079C21.383 31.8644 21.568 31.9527 21.7347 32.0694C22.0464 32.2445 23.1908 32.9687 23.45 32.9896C23.5497 32.7098 23.689 32.4456 23.8638 32.2053C24.1807 31.6825 26.9828 26.8565 27.0325 26.6474C27.2263 26.7911 30.4631 32.4589 30.7407 32.9844C30.8964 32.9495 31.0429 32.8817 31.1702 32.7857L32.5005 32.0432C32.7624 32.2262 33.0243 32.3596 33.3307 32.5347C33.6024 32.7156 33.8931 32.8664 34.1975 32.9844C34.352 32.6942 34.4934 32.4824 34.6558 32.2001L36.0333 29.8028C36.358 29.2643 36.6251 28.7571 36.9499 28.2107C37.1096 27.9493 37.7355 26.7676 37.9057 26.6421C38.1685 27.181 38.4614 27.7046 38.783 28.2107C39.0449 28.6656 41.4201 32.6863 41.4882 32.9739C41.8601 32.9452 43.3213 31.8838 43.7508 31.7818C43.7246 31.4785 41.242 27.3062 41.0351 26.9637L39.6524 24.5795C39.4613 24.2762 39.4717 24.2841 39.4744 23.8161C39.5241 18.198 39.4455 12.5015 39.4744 6.87298C39.4744 5.88217 39.9353 6.12007 36.3318 6.12007V9.97351C36.3318 10.1199 36.2873 10.1617 36.1433 10.1617H28.6666V6.33444C28.6666 6.19066 28.6221 6.14621 28.4781 6.14621C25.0134 6.14621 25.4508 5.91354 25.4508 6.89912C25.4848 12.5277 25.4063 18.2242 25.4508 23.8422C25.4508 24.3102 25.4639 24.3024 25.2727 24.6056C24.6259 25.6356 23.8586 27.0892 23.196 28.1819C22.9918 28.5218 21.1979 31.5256 21.1743 31.8079M32.4351 30.8041L29.5727 25.8212C29.3947 25.5206 29.2716 25.2696 29.0961 24.9821C28.9757 24.7808 28.6666 24.3468 28.6666 24.0906V13.2989H36.3344V23.9651C36.3344 24.2265 36.0333 24.6657 35.9154 24.8644L34.9491 26.5349C34.6322 27.0578 32.6262 30.6655 32.4377 30.8041H32.4351Z" fill="#000000"/>
<path fill-rule="evenodd" clip-rule="evenodd" d="M26.9696 4.64039C28.2397 4.64039 29.2323 3.62343 29.2323 2.69537C29.2323 1.97121 29.2139 1.47973 28.6064 0.865372C28.2599 0.522658 27.8059 0.309417 27.3205 0.261475H26.8754C26.3154 0.309168 25.7945 0.567796 25.4185 0.984863C25.0426 1.40193 24.8397 1.94618 24.851 2.50714C24.8707 3.0652 25.1019 3.59498 25.4979 3.98943C25.8892 4.38501 26.4136 4.62162 26.9696 4.65346" fill="#000000"/>
<path fill-rule="evenodd" clip-rule="evenodd" d="M35.7058 2.19342C35.7058 3.03261 35.7058 3.37246 36.4103 4.06263C36.6246 4.26063 36.8768 4.41336 37.1517 4.51168C37.4266 4.60999 37.7186 4.65186 38.0101 4.63477C38.3016 4.61768 38.5867 4.54199 38.8482 4.41222C39.1097 4.28246 39.3422 4.10131 39.5318 3.87963L39.854 3.3986C40.2861 2.51759 40.0949 1.74638 39.5397 1.01177C39.3654 0.793229 39.1472 0.613556 38.8991 0.484329C38.6511 0.355102 38.3786 0.279187 38.0994 0.261475H37.7432C37.2154 0.30338 36.7189 0.528089 36.3396 0.896743L36.1274 1.12419C35.8848 1.43654 35.7383 1.81256 35.7058 2.2065" fill="#000000"/>
</svg>
